<svg width="775" height="393" viewBox="0 0 775 393" fill="none" xmlns="http://www.w3.org/2000/svg">
<path d="M258.001 72.9011C329.079 102.973 338.496 155.295 334.319 177.697C302.425 86.5701 202.186 87.7092 165.735 78.5965C129.285 69.4839 90.5559 68.3448 65.4961 66.0667C45.4917 64.2481 49.5313 84.9613 54.0757 95.6135C54.714 96.5177 57.7452 100.915 66.6352 113.908C81.4432 135.551 163.457 201.617 175.987 207.313C186.011 211.869 237.118 250.218 261.418 268.823L334.319 330.333C351.405 307.552 358.24 281.353 361.657 260.849C364.391 244.447 380.262 238.827 387.856 238.068V308.691C371.453 358.81 353.683 381.212 346.849 386.148C339.255 393.742 318.372 401.412 295.59 371.34C272.809 341.268 215.475 290.466 189.656 268.823C170.519 254.243 109.541 201.997 81.4432 177.697C48.6377 153.092 33.6018 131.754 30.1846 124.16C-10.8223 50.3474 -1.32994 10.6314 8.54209 0C72.3306 36.4506 115.616 44.4241 163.457 50.1195C201.73 54.6759 242.433 67.2057 258.001 72.9011Z" fill="black"/>
<path d="M516.572 72.9011C445.493 102.973 436.077 155.295 440.253 177.697C472.148 86.5701 572.387 87.7092 608.837 78.5965C645.288 69.4839 684.017 68.3448 709.076 66.0667C729.081 64.2481 725.041 84.9613 720.497 95.6135C719.859 96.5177 716.827 100.915 707.937 113.908C693.129 135.551 611.115 201.617 598.586 207.313C588.562 211.869 537.455 250.218 513.155 268.823L440.253 330.333C423.167 307.552 416.333 281.353 412.915 260.849C410.182 244.447 394.311 238.827 386.717 238.068V308.691C403.119 358.81 420.889 381.212 427.724 386.148C435.317 393.742 456.201 401.412 478.982 371.34C501.764 341.268 559.097 290.466 584.917 268.823C604.053 254.243 665.032 201.997 693.129 177.697C725.935 153.092 740.971 131.754 744.388 124.16C785.395 50.3474 775.902 10.6314 766.03 0C702.242 36.4506 658.957 44.4241 611.115 50.1195C572.842 54.6759 532.139 67.2057 516.572 72.9011Z" fill="black"/>
</svg>
